<svg id="svg" version="1.1" xmlns="http://www.w3.org/2000/svg"  width="256" height="256" viewBox="0, 0, 400,400"><g id="svgg"><path id="path0" d="M169.000 70.662 C 162.518 71.080,153.098 72.760,146.400 74.694 C 142.053 75.949,129.943 81.050,126.352 83.140 C 106.675 94.588,92.533 110.925,83.711 132.400 C 75.824 151.599,75.875 182.343,83.824 200.200 C 84.117 200.860,84.828 202.480,85.402 203.800 C 88.185 210.199,94.699 221.209,97.471 224.200 C 97.878 224.640,98.929 225.885,99.806 226.967 C 126.855 260.352,179.025 271.545,217.263 252.168 C 221.762 249.888,222.677 250.268,227.978 256.622 C 230.856 260.072,235.825 265.914,240.740 271.626 C 241.983 273.071,243.810 275.228,244.800 276.420 C 245.790 277.612,247.332 279.400,248.227 280.394 C 249.977 282.336,254.326 287.474,258.200 292.177 C 259.520 293.780,262.072 296.780,263.871 298.845 C 265.670 300.910,268.438 304.130,270.022 306.000 C 271.606 307.870,273.289 309.850,273.761 310.400 C 274.233 310.950,275.681 312.660,276.979 314.200 C 278.277 315.740,280.884 318.800,282.773 321.000 C 284.661 323.200,287.076 326.037,288.138 327.305 C 291.516 331.334,291.227 331.410,299.400 324.340 C 302.040 322.056,305.550 319.087,307.200 317.741 C 308.850 316.396,310.830 314.683,311.600 313.936 C 312.370 313.188,313.720 312.044,314.600 311.393 C 316.168 310.233,317.980 308.660,320.658 306.133 C 322.940 303.979,322.661 303.388,315.400 295.013 C 313.640 292.983,311.120 290.012,309.800 288.411 C 308.480 286.810,307.121 285.207,306.781 284.850 C 306.440 284.492,304.730 282.500,302.981 280.423 C 301.231 278.345,299.069 275.825,298.176 274.823 C 297.282 273.820,296.180 272.510,295.726 271.911 C 295.273 271.311,293.664 269.447,292.151 267.767 C 290.638 266.088,289.237 264.418,289.038 264.057 C 288.840 263.696,287.393 261.960,285.824 260.200 C 284.255 258.440,282.078 255.923,280.986 254.606 C 279.894 253.290,278.667 251.850,278.260 251.406 C 277.852 250.963,276.412 249.253,275.060 247.607 C 273.707 245.960,271.761 243.710,270.735 242.607 C 269.710 241.503,268.460 240.060,267.957 239.400 C 267.455 238.740,265.579 236.490,263.787 234.400 C 261.995 232.310,260.159 230.150,259.705 229.600 C 259.251 229.050,258.140 227.731,257.234 226.669 C 253.937 222.801,253.902 222.166,256.745 217.800 C 259.362 213.780,265.200 202.682,265.200 201.726 C 265.200 201.613,265.469 200.954,265.797 200.260 C 266.126 199.567,266.679 198.010,267.027 196.800 C 267.374 195.590,268.098 193.070,268.635 191.200 C 271.780 180.245,273.004 167.476,271.818 158.000 C 270.576 148.076,270.228 146.377,267.762 138.200 C 267.231 136.440,266.797 134.798,266.798 134.552 C 266.800 134.090,263.775 127.140,262.641 125.000 C 262.291 124.340,262.004 123.679,262.002 123.532 C 261.993 122.506,254.908 111.518,251.086 106.600 C 249.144 104.102,242.003 96.796,239.605 94.854 C 238.617 94.054,237.537 93.103,237.205 92.740 C 233.920 89.155,222.064 82.136,212.342 78.020 C 210.724 77.335,208.860 76.520,208.200 76.209 C 201.371 72.991,179.937 69.958,169.000 70.662 M186.247 100.972 C 189.081 101.507,192.840 102.404,194.600 102.967 C 196.360 103.530,198.010 103.992,198.266 103.995 C 199.455 104.008,208.375 108.575,213.000 111.539 C 222.749 117.786,233.510 130.482,237.125 140.000 C 237.584 141.210,238.521 143.640,239.206 145.400 C 243.594 156.665,243.607 175.527,239.237 186.800 C 238.597 188.450,237.945 190.250,237.787 190.800 C 235.741 197.942,225.191 211.674,217.000 217.853 C 210.100 223.059,200.725 227.903,194.800 229.323 C 193.370 229.666,190.490 230.363,188.400 230.873 C 182.743 232.253,166.896 232.258,161.200 230.882 C 152.152 228.695,151.350 228.427,145.200 225.527 C 134.947 220.692,122.861 210.368,118.126 202.400 C 117.669 201.630,116.407 199.542,115.322 197.761 C 105.873 182.242,104.522 160.253,111.872 141.600 C 123.023 113.301,156.027 95.272,186.247 100.972 " stroke="none" fill="#f8f8f8" fill-rule="evenodd"></path><path id="path1" d="M183.741 1.249 C 177.751 1.575,174.800 2.364,174.800 3.640 C 174.800 3.838,172.304 4.000,169.254 4.000 C 164.314 4.000,163.597 4.087,162.691 4.800 C 161.949 5.383,161.068 5.600,159.437 5.600 C 157.754 5.600,157.007 5.793,156.422 6.378 C 155.831 6.969,155.037 7.170,153.122 7.211 C 148.848 7.302,146.028 7.966,142.746 9.653 C 141.946 10.064,140.790 10.400,140.177 10.400 C 139.564 10.400,138.754 10.679,138.377 11.021 C 138.000 11.362,136.456 11.838,134.946 12.078 C 133.358 12.331,131.852 12.828,131.374 13.258 C 130.920 13.666,130.302 14.000,130.001 14.000 C 129.178 14.000,126.000 15.617,126.000 16.036 C 126.000 16.236,125.280 16.400,124.400 16.400 C 123.372 16.400,122.533 16.667,122.053 17.147 C 121.643 17.557,120.444 18.022,119.390 18.181 C 116.556 18.606,115.651 19.057,115.368 20.186 C 115.158 21.022,114.875 21.200,113.757 21.200 C 112.933 21.200,112.085 21.515,111.600 22.000 C 111.160 22.440,110.350 22.800,109.800 22.800 C 109.250 22.800,108.440 23.160,108.000 23.600 C 107.560 24.040,106.949 24.400,106.641 24.400 C 106.334 24.400,105.535 25.024,104.866 25.786 C 104.196 26.549,103.143 27.293,102.524 27.440 C 101.906 27.587,101.130 27.937,100.800 28.217 C 100.470 28.496,99.435 28.929,98.500 29.178 C 97.565 29.427,96.800 29.792,96.800 29.988 C 96.800 30.185,96.395 30.474,95.900 30.631 C 94.871 30.956,92.357 32.749,91.880 33.498 C 91.704 33.774,91.318 34.000,91.023 34.000 C 90.727 34.000,90.382 34.270,90.255 34.600 C 90.129 34.930,89.659 35.200,89.213 35.200 C 88.766 35.200,88.040 35.560,87.600 36.000 C 87.160 36.440,86.626 36.800,86.414 36.800 C 86.202 36.800,85.835 37.160,85.600 37.600 C 85.365 38.040,84.940 38.400,84.656 38.400 C 84.373 38.400,83.434 39.117,82.570 39.993 C 81.707 40.870,80.668 41.590,80.263 41.593 C 79.857 41.597,79.431 41.960,79.316 42.400 C 79.201 42.840,78.838 43.200,78.509 43.200 C 78.180 43.200,77.051 43.920,76.000 44.800 C 74.949 45.680,73.901 46.400,73.671 46.400 C 73.442 46.400,73.140 46.760,73.000 47.200 C 72.860 47.640,72.500 48.000,72.200 48.000 C 71.900 48.000,71.540 48.360,71.400 48.800 C 71.260 49.240,70.850 49.600,70.488 49.600 C 69.706 49.600,66.400 52.741,66.400 53.483 C 66.400 53.767,66.205 54.000,65.967 54.000 C 65.144 54.000,62.000 56.899,62.000 57.658 C 62.000 58.079,61.598 58.574,61.100 58.764 C 60.094 59.149,59.049 60.241,58.673 61.300 C 58.537 61.685,58.081 62.000,57.661 62.000 C 56.808 62.000,54.000 65.187,54.000 66.155 C 54.000 66.552,53.776 66.689,53.376 66.535 C 52.959 66.376,52.678 66.579,52.529 67.148 C 52.407 67.617,52.089 68.000,51.823 68.000 C 51.137 68.000,49.600 69.727,49.600 70.499 C 49.600 70.855,49.240 71.260,48.800 71.400 C 48.360 71.540,48.000 71.900,48.000 72.200 C 48.000 72.500,47.640 72.860,47.200 73.000 C 46.760 73.140,46.397 73.467,46.393 73.727 C 46.389 73.987,45.309 75.425,43.993 76.923 C 42.677 78.421,41.600 79.959,41.600 80.342 C 41.600 80.725,40.880 81.741,40.000 82.600 C 39.120 83.459,38.400 84.389,38.400 84.667 C 38.400 84.945,38.040 85.365,37.600 85.600 C 37.160 85.835,36.800 86.202,36.800 86.414 C 36.800 86.626,36.440 87.160,36.000 87.600 C 35.560 88.040,35.200 88.760,35.200 89.200 C 35.200 89.640,35.011 90.000,34.780 90.000 C 34.548 90.000,34.105 90.585,33.795 91.300 C 33.485 92.015,32.750 93.047,32.162 93.593 C 31.574 94.140,30.920 95.085,30.708 95.693 C 30.495 96.302,30.166 96.800,29.976 96.800 C 29.786 96.800,29.427 97.565,29.178 98.500 C 28.929 99.435,28.496 100.470,28.217 100.800 C 27.937 101.130,27.587 101.906,27.440 102.524 C 27.293 103.143,26.549 104.196,25.786 104.866 C 25.024 105.535,24.400 106.334,24.400 106.641 C 24.400 106.949,24.040 107.560,23.600 108.000 C 23.160 108.440,22.800 109.160,22.800 109.600 C 22.800 110.040,22.440 110.760,22.000 111.200 C 21.474 111.726,21.200 112.533,21.200 113.557 C 21.200 114.889,21.054 115.150,20.186 115.368 C 19.052 115.652,18.606 116.555,18.174 119.437 C 18.012 120.516,17.623 121.587,17.310 121.817 C 16.996 122.046,16.663 123.029,16.570 124.001 C 16.475 124.982,16.140 125.914,15.816 126.095 C 15.495 126.275,15.109 127.092,14.958 127.911 C 14.808 128.730,14.567 129.490,14.423 129.600 C 13.083 130.625,11.473 135.618,11.932 137.330 C 11.980 137.511,11.844 137.551,11.630 137.419 C 11.092 137.086,10.512 138.338,10.480 139.898 C 10.465 140.612,10.105 141.872,9.679 142.698 C 7.925 146.101,7.200 149.098,7.200 152.942 C 7.200 154.927,7.040 155.559,6.400 156.107 C 5.780 156.638,5.600 157.287,5.600 158.996 C 5.600 160.208,5.428 161.200,5.219 161.200 C 4.487 161.200,4.004 164.235,4.002 168.851 C 4.000 172.495,3.870 173.610,3.400 174.000 C 3.070 174.274,2.800 174.796,2.800 175.160 C 2.800 175.524,2.536 176.198,2.214 176.658 C 0.430 179.205,0.370 222.309,2.147 224.846 C 2.506 225.359,2.800 226.076,2.800 226.440 C 2.800 226.804,3.050 227.309,3.355 227.563 C 3.765 227.903,3.950 229.477,4.062 233.578 C 4.182 237.937,4.353 239.290,4.855 239.866 C 5.207 240.270,5.597 241.649,5.722 242.931 C 5.846 244.213,6.230 245.692,6.574 246.217 C 6.930 246.760,7.211 248.083,7.226 249.286 C 7.253 251.561,8.027 255.760,8.506 256.240 C 8.668 256.401,8.800 256.929,8.800 257.413 C 8.800 257.896,9.160 258.750,9.600 259.309 C 10.040 259.869,10.400 260.895,10.400 261.589 C 10.400 262.990,11.069 264.528,11.549 264.231 C 11.720 264.126,11.900 264.944,11.951 266.050 C 12.057 268.385,12.460 269.620,13.358 270.365 C 13.711 270.658,14.000 271.255,14.000 271.691 C 14.000 272.127,14.513 273.244,15.140 274.174 C 15.825 275.188,16.366 276.618,16.494 277.753 C 16.611 278.793,16.978 279.859,17.309 280.122 C 17.640 280.385,18.030 281.281,18.176 282.112 C 18.408 283.438,19.543 285.593,20.794 287.083 C 21.017 287.349,21.200 288.024,21.200 288.583 C 21.200 289.142,21.560 289.960,22.000 290.400 C 22.440 290.840,22.800 291.442,22.800 291.738 C 22.800 292.034,23.160 292.602,23.600 293.000 C 24.040 293.398,24.400 294.127,24.400 294.621 C 24.400 295.146,24.984 296.030,25.809 296.754 C 26.646 297.489,27.323 298.521,27.477 299.296 C 27.619 300.013,27.962 300.780,28.239 301.000 C 28.516 301.220,28.942 302.165,29.187 303.100 C 29.431 304.035,29.792 304.800,29.988 304.800 C 30.185 304.800,30.474 305.205,30.631 305.700 C 30.877 306.478,31.429 307.321,33.400 309.928 C 33.620 310.219,34.070 310.762,34.400 311.134 C 34.730 311.506,35.229 312.259,35.508 312.805 C 36.636 315.014,37.891 316.860,39.637 318.877 C 40.647 320.045,41.586 321.315,41.724 321.700 C 41.862 322.085,42.251 322.400,42.587 322.400 C 42.924 322.400,43.200 322.732,43.200 323.138 C 43.200 323.544,43.560 324.202,44.000 324.600 C 44.440 324.998,44.800 325.560,44.800 325.848 C 44.800 326.136,45.160 326.565,45.600 326.800 C 46.040 327.035,46.400 327.480,46.400 327.787 C 46.400 328.095,46.760 328.460,47.200 328.600 C 47.640 328.740,48.000 329.022,48.000 329.227 C 48.000 329.683,48.724 330.552,51.700 333.666 C 52.965 334.990,54.000 336.200,54.000 336.355 C 54.000 337.022,57.112 339.600,57.917 339.600 C 58.515 339.600,58.800 339.843,58.800 340.353 C 58.800 340.770,59.157 341.200,59.600 341.316 C 60.044 341.432,60.400 341.862,60.400 342.281 C 60.400 342.950,63.074 346.000,63.660 346.000 C 63.784 346.000,65.396 347.458,67.243 349.239 C 71.604 353.447,71.783 353.600,72.334 353.600 C 72.590 353.600,72.800 353.876,72.800 354.213 C 72.800 354.549,73.115 354.943,73.500 355.086 C 73.885 355.230,74.435 355.674,74.723 356.074 C 75.010 356.473,75.477 356.800,75.761 356.800 C 76.044 356.800,76.602 357.160,77.000 357.600 C 77.398 358.040,78.056 358.400,78.462 358.400 C 78.871 358.400,79.200 358.685,79.200 359.037 C 79.200 359.388,79.560 359.769,80.000 359.884 C 80.440 359.999,80.800 360.235,80.800 360.407 C 80.800 360.580,81.385 361.095,82.100 361.551 C 82.815 362.008,83.757 362.611,84.194 362.891 C 84.631 363.171,85.226 363.715,85.517 364.100 C 85.810 364.488,86.570 364.800,87.223 364.800 C 87.934 364.800,88.400 365.010,88.400 365.330 C 88.400 365.967,90.063 367.600,90.712 367.600 C 90.965 367.600,91.365 367.960,91.600 368.400 C 91.835 368.840,92.268 369.200,92.560 369.200 C 92.853 369.200,93.531 369.545,94.067 369.967 C 94.604 370.389,95.708 370.859,96.521 371.012 C 97.335 371.164,98.000 371.437,98.000 371.618 C 98.000 371.798,98.368 372.063,98.818 372.206 C 99.268 372.349,100.393 373.168,101.318 374.028 C 102.243 374.887,103.377 375.592,103.838 375.595 C 104.299 375.598,105.002 375.960,105.400 376.400 C 105.798 376.840,106.518 377.200,107.000 377.200 C 107.482 377.200,108.202 377.560,108.600 378.000 C 109.028 378.473,109.832 378.800,110.567 378.800 C 111.473 378.800,111.918 379.044,112.205 379.700 C 112.721 380.877,115.012 381.999,116.900 381.999 C 117.946 382.000,118.400 382.176,118.400 382.582 C 118.400 382.933,118.969 383.270,119.832 383.432 C 120.619 383.580,121.357 383.943,121.471 384.240 C 121.584 384.536,122.335 384.892,123.139 385.032 C 124.797 385.320,128.628 386.998,129.000 387.601 C 129.136 387.820,129.793 388.000,130.461 388.000 C 131.128 388.000,132.131 388.360,132.691 388.800 C 133.262 389.250,134.314 389.600,135.091 389.600 C 135.868 389.600,136.919 389.950,137.491 390.400 C 138.050 390.840,138.950 391.200,139.491 391.200 C 140.031 391.200,140.931 391.560,141.491 392.000 C 142.282 392.622,143.114 392.800,145.234 392.800 C 147.408 392.800,148.039 392.941,148.350 393.496 C 148.659 394.048,149.425 394.222,152.064 394.342 C 154.759 394.465,155.490 394.636,155.918 395.247 C 156.355 395.871,156.961 396.000,159.460 396.000 C 161.868 396.000,162.678 396.161,163.491 396.800 C 164.050 397.240,164.829 397.600,165.221 397.600 C 165.613 397.600,166.004 397.812,166.091 398.072 C 166.195 398.385,168.270 398.666,172.224 398.904 C 175.511 399.102,178.260 399.430,178.333 399.632 C 178.508 400.114,223.200 400.126,223.200 399.644 C 223.200 399.448,225.225 399.173,227.700 399.032 C 236.023 398.560,236.702 398.437,237.979 397.160 C 239.051 396.088,239.364 396.000,242.115 396.000 C 244.486 396.000,245.299 395.837,246.109 395.200 C 246.868 394.603,247.732 394.400,249.509 394.400 C 251.286 394.400,252.151 394.197,252.909 393.600 C 253.676 392.997,254.532 392.800,256.384 392.800 C 258.048 392.800,259.319 392.548,260.321 392.020 C 261.134 391.591,262.070 391.134,262.400 391.004 C 262.730 390.875,263.450 390.508,264.000 390.190 C 264.550 389.872,265.774 389.609,266.721 389.606 C 268.217 389.601,269.347 389.190,272.400 387.539 C 274.749 386.269,277.219 385.247,278.461 385.032 C 279.265 384.892,280.016 384.536,280.129 384.240 C 280.243 383.943,280.981 383.580,281.768 383.432 C 282.631 383.270,283.200 382.933,283.200 382.582 C 283.200 382.176,283.654 382.000,284.700 381.999 C 286.588 381.999,288.879 380.877,289.395 379.700 C 289.697 379.012,290.121 378.800,291.199 378.800 C 292.174 378.800,292.761 378.554,293.107 378.000 C 293.397 377.535,294.040 377.200,294.641 377.200 C 295.338 377.200,295.743 376.940,295.884 376.400 C 296.034 375.825,296.430 375.600,297.289 375.600 C 298.349 375.600,299.517 374.913,301.600 373.063 C 301.930 372.770,302.515 372.416,302.900 372.278 C 303.285 372.139,303.600 371.850,303.600 371.637 C 303.600 371.424,304.432 371.124,305.449 370.972 C 306.476 370.818,307.583 370.362,307.938 369.947 C 308.290 369.536,308.742 369.200,308.942 369.200 C 309.142 369.200,309.867 368.614,310.553 367.898 C 311.239 367.182,312.250 366.363,312.800 366.079 C 315.667 364.594,316.345 364.159,318.000 362.738 C 320.878 360.266,321.027 360.152,321.731 359.882 C 322.099 359.741,322.400 359.349,322.400 359.013 C 322.400 358.676,322.732 358.400,323.138 358.400 C 323.544 358.400,324.202 358.040,324.600 357.600 C 324.998 357.160,325.560 356.800,325.848 356.800 C 326.136 356.800,326.565 356.440,326.800 356.000 C 327.035 355.560,327.449 355.200,327.718 355.200 C 328.287 355.200,330.400 353.330,330.400 352.827 C 330.400 352.640,330.848 352.374,331.395 352.237 C 331.942 352.100,332.704 351.495,333.089 350.894 C 334.046 349.396,335.843 347.600,336.384 347.600 C 337.085 347.600,340.467 343.935,341.048 342.547 C 341.355 341.812,341.960 341.196,342.512 341.058 C 343.690 340.762,347.600 337.057,347.600 336.237 C 347.600 335.902,347.960 335.435,348.400 335.200 C 348.840 334.965,349.200 334.528,349.200 334.229 C 349.200 333.931,349.648 333.574,350.195 333.437 C 350.742 333.300,351.506 332.695,351.892 332.094 C 352.278 331.492,353.181 330.387,353.897 329.639 C 354.614 328.890,355.200 328.078,355.200 327.835 C 355.200 327.592,355.560 327.168,356.000 326.893 C 356.440 326.618,356.801 326.170,356.803 325.897 C 356.804 325.623,357.794 324.357,359.003 323.082 C 360.211 321.806,361.200 320.497,361.200 320.173 C 361.200 319.848,361.894 318.821,362.742 317.891 C 364.236 316.252,365.049 314.988,366.080 312.700 C 366.352 312.095,366.775 311.600,367.018 311.600 C 367.660 311.600,369.200 309.855,369.200 309.128 C 369.200 308.787,369.545 308.069,369.967 307.533 C 370.389 306.996,370.857 305.904,371.006 305.106 C 371.156 304.308,371.531 303.559,371.839 303.440 C 372.148 303.322,372.400 303.010,372.400 302.746 C 372.400 302.483,372.669 301.982,372.998 301.634 C 374.603 299.933,375.600 298.405,375.600 297.646 C 375.600 297.184,375.960 296.582,376.400 296.307 C 376.840 296.032,377.200 295.491,377.200 295.104 C 377.200 294.717,377.560 294.040,378.000 293.600 C 378.440 293.160,378.800 292.415,378.800 291.944 C 378.800 291.473,379.058 290.888,379.373 290.644 C 380.437 289.820,382.000 286.308,382.000 284.740 C 382.000 283.659,382.173 283.200,382.582 283.200 C 382.931 283.200,383.269 282.637,383.427 281.794 C 383.572 281.021,383.896 280.256,384.146 280.094 C 384.810 279.664,385.901 277.221,386.179 275.541 C 386.312 274.738,386.776 273.630,387.211 273.077 C 387.645 272.525,388.000 271.827,388.000 271.526 C 388.000 271.225,388.278 270.581,388.618 270.096 C 388.958 269.610,389.347 268.276,389.483 267.131 C 389.633 265.865,390.153 264.411,390.810 263.424 C 392.105 261.477,392.433 260.286,392.683 256.617 C 392.813 254.706,393.111 253.530,393.636 252.863 C 394.194 252.154,394.400 251.249,394.400 249.509 C 394.400 247.732,394.603 246.868,395.200 246.109 C 395.841 245.294,396.000 244.486,396.000 242.045 C 396.000 239.177,396.071 238.931,397.200 237.865 C 397.860 237.242,398.400 236.397,398.400 235.988 C 398.400 233.379,399.332 224.977,399.634 224.867 C 400.107 224.694,400.124 178.514,399.651 178.333 C 399.458 178.260,399.109 175.272,398.874 171.693 C 398.463 165.424,398.403 165.120,397.224 163.373 C 396.179 161.826,396.000 161.190,396.000 159.034 C 396.000 157.114,395.808 156.264,395.200 155.491 C 394.622 154.756,394.400 153.868,394.400 152.291 C 394.400 150.714,394.178 149.826,393.600 149.091 C 392.974 148.295,392.800 147.468,392.800 145.291 C 392.800 143.114,392.626 142.287,392.000 141.491 C 391.560 140.931,391.200 140.031,391.200 139.491 C 391.200 138.950,390.840 138.050,390.400 137.491 C 389.950 136.919,389.600 135.868,389.600 135.091 C 389.600 134.314,389.250 133.262,388.800 132.691 C 388.360 132.131,388.000 131.191,388.000 130.600 C 388.000 130.009,387.640 129.069,387.200 128.509 C 386.760 127.950,386.400 127.178,386.400 126.795 C 386.400 126.412,386.153 125.893,385.852 125.643 C 385.550 125.393,385.203 124.440,385.081 123.526 C 384.958 122.612,384.595 121.717,384.275 121.538 C 383.954 121.358,383.572 120.579,383.427 119.806 C 383.269 118.963,382.931 118.400,382.582 118.400 C 382.175 118.400,382.000 117.944,382.000 116.885 C 382.000 115.139,380.809 112.562,379.618 111.727 C 379.109 111.371,378.800 110.710,378.800 109.977 C 378.800 109.330,378.440 108.440,378.000 108.000 C 377.560 107.560,377.200 106.958,377.200 106.662 C 377.200 106.366,376.840 105.798,376.400 105.400 C 375.960 105.002,375.598 104.299,375.595 103.838 C 375.592 103.377,374.887 102.243,374.028 101.318 C 373.168 100.393,372.349 99.268,372.206 98.818 C 372.063 98.368,371.798 98.000,371.618 98.000 C 371.437 98.000,371.164 97.335,371.012 96.521 C 370.859 95.708,370.389 94.604,369.967 94.067 C 369.545 93.531,369.200 92.853,369.200 92.560 C 369.200 92.268,368.840 91.835,368.400 91.600 C 367.960 91.365,367.600 90.933,367.600 90.642 C 367.600 90.351,366.972 89.502,366.204 88.756 C 365.437 88.010,364.807 87.087,364.804 86.703 C 364.802 86.320,364.440 85.782,364.000 85.507 C 363.560 85.232,363.200 84.851,363.200 84.659 C 363.200 84.468,362.510 83.476,361.667 82.456 C 360.824 81.435,360.020 80.285,359.880 79.900 C 359.740 79.515,359.349 79.200,359.013 79.200 C 358.676 79.200,358.400 78.910,358.400 78.556 C 358.400 78.201,357.710 77.076,356.867 76.056 C 356.024 75.035,355.220 73.885,355.080 73.500 C 354.940 73.115,354.549 72.800,354.213 72.800 C 353.876 72.800,353.600 72.590,353.600 72.334 C 353.600 71.820,353.524 71.729,350.030 68.025 C 348.693 66.609,347.600 65.335,347.600 65.195 C 347.600 64.559,343.012 60.400,342.311 60.400 C 341.862 60.400,341.436 60.057,341.316 59.600 C 341.200 59.157,340.770 58.800,340.353 58.800 C 339.826 58.800,339.600 58.514,339.600 57.847 C 339.600 56.804,336.830 54.000,335.799 54.000 C 335.469 54.000,335.198 53.775,335.195 53.500 C 335.187 52.776,330.226 48.000,329.482 48.000 C 329.136 48.000,328.740 47.640,328.600 47.200 C 328.460 46.760,328.158 46.400,327.929 46.400 C 327.699 46.400,326.651 45.680,325.600 44.800 C 324.549 43.920,323.420 43.200,323.091 43.200 C 322.762 43.200,322.399 42.840,322.284 42.400 C 322.168 41.956,321.738 41.600,321.319 41.600 C 320.903 41.600,319.859 40.880,319.000 40.000 C 318.141 39.120,317.211 38.400,316.933 38.400 C 316.655 38.400,316.235 38.040,316.000 37.600 C 315.765 37.160,315.336 36.800,315.048 36.800 C 314.760 36.800,314.198 36.440,313.800 36.000 C 313.402 35.560,312.738 35.200,312.325 35.200 C 311.913 35.200,311.471 34.930,311.345 34.600 C 311.218 34.270,310.873 34.000,310.577 34.000 C 310.282 34.000,309.896 33.774,309.720 33.498 C 309.243 32.749,306.729 30.956,305.700 30.631 C 305.205 30.474,304.800 30.185,304.800 29.988 C 304.800 29.792,304.035 29.431,303.100 29.187 C 302.165 28.942,301.220 28.516,301.000 28.239 C 300.780 27.962,300.013 27.619,299.296 27.477 C 298.521 27.323,297.489 26.646,296.754 25.809 C 295.988 24.936,295.154 24.400,294.562 24.400 C 294.037 24.400,293.382 24.040,293.107 23.600 C 292.815 23.133,292.174 22.800,291.566 22.800 C 290.993 22.800,290.198 22.440,289.800 22.000 C 289.351 21.504,288.568 21.200,287.738 21.200 C 287.002 21.200,286.400 21.037,286.400 20.838 C 286.400 20.306,283.039 18.428,281.555 18.131 C 280.851 17.990,279.943 17.543,279.538 17.137 C 279.106 16.706,278.228 16.400,277.420 16.400 C 276.566 16.400,275.385 15.962,274.320 15.250 C 273.374 14.618,272.150 13.967,271.600 13.803 C 271.050 13.639,270.330 13.273,270.000 12.989 C 269.459 12.524,265.078 11.715,264.270 11.932 C 264.089 11.980,264.049 11.844,264.181 11.630 C 264.522 11.079,263.086 10.400,261.581 10.400 C 260.881 10.400,259.654 10.064,258.854 9.653 C 255.630 7.996,252.483 7.200,249.155 7.200 C 247.984 7.200,246.759 6.929,246.162 6.538 C 245.543 6.133,243.971 5.801,242.098 5.681 C 239.872 5.538,238.826 5.283,238.246 4.742 C 237.553 4.096,236.758 4.000,232.125 4.000 C 229.196 4.000,226.800 3.838,226.800 3.640 C 226.800 1.176,206.127 0.028,183.741 1.249 M187.400 68.795 C 195.770 70.205,201.206 71.557,208.600 74.069 C 214.041 75.918,223.366 80.262,225.200 81.802 C 225.530 82.079,226.183 82.422,226.650 82.564 C 227.118 82.706,229.008 83.894,230.850 85.203 C 232.693 86.513,234.533 87.813,234.939 88.092 C 242.741 93.450,255.487 107.228,259.649 114.800 C 260.072 115.570,261.137 117.460,262.015 119.000 C 264.687 123.684,266.251 126.873,267.216 129.600 C 267.721 131.030,268.254 132.380,268.400 132.600 C 269.767 134.664,272.552 145.467,273.657 152.992 C 274.346 157.684,273.895 179.970,273.038 183.600 C 271.509 190.076,271.165 191.472,270.626 193.400 C 269.868 196.110,268.902 198.791,268.249 200.000 C 267.952 200.550,267.585 201.518,267.434 202.152 C 266.838 204.646,259.527 218.472,257.767 220.431 C 256.278 222.090,257.340 223.568,273.400 242.188 C 275.600 244.738,278.480 248.138,279.800 249.744 C 283.361 254.074,291.838 263.966,293.560 265.800 C 294.386 266.680,296.291 268.930,297.792 270.800 C 299.293 272.670,300.820 274.470,301.185 274.800 C 301.550 275.130,302.640 276.390,303.606 277.600 C 304.573 278.810,306.092 280.610,306.982 281.600 C 307.872 282.590,309.230 284.185,310.000 285.145 C 311.457 286.961,313.674 289.528,315.898 291.973 C 316.612 292.758,317.197 293.528,317.198 293.684 C 317.199 293.841,317.542 294.291,317.959 294.684 C 318.377 295.078,320.087 297.001,321.759 298.957 C 326.439 304.432,326.357 304.644,316.400 312.887 C 314.090 314.799,311.543 316.957,310.740 317.682 C 309.937 318.407,308.510 319.630,307.570 320.400 C 306.630 321.170,305.037 322.525,304.030 323.412 C 303.024 324.298,301.121 325.918,299.803 327.012 C 298.484 328.105,296.954 329.453,296.403 330.006 C 294.918 331.495,293.099 332.705,292.197 332.805 C 289.868 333.061,290.166 333.318,283.463 325.250 C 282.617 324.233,280.997 322.331,279.863 321.025 C 278.728 319.719,277.080 317.812,276.200 316.787 C 275.320 315.762,273.160 313.256,271.400 311.216 C 269.640 309.177,267.930 307.143,267.600 306.697 C 267.270 306.250,265.920 304.682,264.600 303.213 C 263.280 301.743,261.858 300.104,261.439 299.570 C 261.021 299.037,259.750 297.520,258.615 296.200 C 257.480 294.880,254.590 291.460,252.192 288.600 C 249.795 285.740,247.725 283.310,247.592 283.200 C 247.459 283.090,245.937 281.290,244.209 279.200 C 242.482 277.110,240.118 274.320,238.955 273.000 C 236.488 270.200,231.851 264.795,227.600 259.765 C 221.191 252.182,221.938 252.477,216.089 255.229 C 214.254 256.093,212.533 256.800,212.265 256.800 C 211.997 256.800,211.423 257.042,210.989 257.338 C 210.125 257.928,203.893 260.000,202.984 260.000 C 202.672 260.000,201.288 260.343,199.908 260.762 C 188.601 264.196,169.145 264.944,157.000 262.412 C 155.900 262.183,154.011 261.819,152.802 261.603 C 151.594 261.387,149.794 260.940,148.802 260.609 C 147.811 260.279,145.830 259.729,144.400 259.387 C 142.970 259.046,140.833 258.324,139.652 257.783 C 138.470 257.242,137.362 256.800,137.189 256.800 C 135.992 256.800,122.924 249.936,119.200 247.352 C 113.662 243.509,112.110 242.318,108.582 239.205 C 97.441 229.375,84.627 211.499,82.545 202.885 C 82.401 202.288,81.971 201.170,81.590 200.400 C 76.675 190.476,74.054 169.996,75.800 155.163 C 76.770 146.924,79.776 135.036,81.919 130.958 C 82.138 130.541,82.831 128.854,83.459 127.210 C 84.779 123.750,89.556 115.162,92.193 111.509 C 93.188 110.129,94.755 107.920,95.673 106.600 C 100.043 100.322,116.035 86.116,122.342 82.911 C 123.304 82.423,124.298 81.851,124.552 81.640 C 125.462 80.885,135.379 76.000,136.003 76.000 C 136.353 76.000,136.811 75.837,137.020 75.637 C 137.874 74.823,151.623 70.624,154.882 70.183 C 155.827 70.055,157.770 69.697,159.200 69.387 C 160.630 69.077,162.250 68.753,162.800 68.666 C 164.768 68.357,185.440 68.465,187.400 68.795 M164.600 103.232 C 140.909 106.872,119.228 124.534,112.835 145.400 C 112.565 146.280,112.186 147.360,111.992 147.800 C 110.978 150.100,109.197 161.956,109.208 166.329 C 109.221 171.508,110.969 181.595,112.632 186.089 C 114.362 190.763,114.562 191.237,116.229 194.600 C 122.740 207.733,136.453 220.201,149.687 225.019 C 167.520 231.510,184.403 231.641,199.000 225.401 C 209.889 220.746,215.485 217.021,222.440 209.800 C 225.741 206.372,229.200 202.298,229.200 201.838 C 229.200 201.683,229.889 200.531,230.731 199.278 C 232.207 197.083,234.211 193.189,236.020 189.000 C 240.552 178.506,241.565 160.236,238.171 150.200 C 237.873 149.320,237.436 147.716,237.199 146.636 C 236.226 142.205,230.296 131.371,226.237 126.611 C 218.219 117.207,211.384 112.259,198.634 106.630 C 190.603 103.084,175.422 101.569,164.600 103.232 " stroke="none" fill="#6b5c7c" fill-rule="evenodd"></path><path id="path2" d="M169.800 69.452 C 159.066 70.597,153.285 71.722,143.200 74.630 C 140.980 75.270,134.787 77.856,130.889 79.771 C 129.289 80.557,127.873 81.200,127.744 81.200 C 126.522 81.200,114.339 89.755,109.600 93.940 C 98.119 104.081,86.655 120.177,83.206 131.000 C 82.925 131.880,82.560 132.780,82.394 133.000 C 81.457 134.244,78.751 144.868,77.555 152.000 C 75.197 166.061,77.804 190.803,82.613 200.000 C 82.900 200.550,83.432 201.810,83.795 202.800 C 84.891 205.788,89.837 214.989,92.347 218.709 C 120.321 260.164,172.539 274.191,218.753 252.664 C 222.089 251.110,221.902 250.986,229.000 259.419 C 231.200 262.033,233.900 265.198,235.000 266.452 C 236.100 267.706,238.652 270.683,240.671 273.066 C 242.689 275.450,245.479 278.733,246.871 280.363 C 248.262 281.993,250.570 284.709,252.000 286.398 C 253.430 288.088,256.940 292.220,259.800 295.582 C 262.660 298.944,266.260 303.188,267.800 305.013 C 273.402 311.653,281.460 321.080,284.395 324.427 C 286.048 326.312,288.041 328.637,288.824 329.594 C 289.948 330.967,290.510 331.333,291.490 331.333 C 292.835 331.333,292.735 331.406,300.386 324.800 C 303.062 322.490,305.914 320.095,306.725 319.477 C 308.105 318.427,311.095 315.838,319.661 308.275 C 324.404 304.087,324.165 302.787,317.352 295.725 C 316.939 295.296,315.340 293.444,313.800 291.609 C 309.435 286.408,296.296 270.971,293.024 267.200 C 287.920 261.318,285.040 257.949,283.800 256.407 C 282.457 254.739,279.473 251.215,275.639 246.770 C 274.230 245.136,272.315 242.900,271.385 241.800 C 270.454 240.700,267.468 237.190,264.749 234.000 C 258.365 226.509,256.011 223.573,255.956 223.034 C 255.807 221.576,256.275 220.304,257.811 217.989 C 280.111 184.377,278.002 140.597,252.455 106.800 C 234.810 83.456,197.323 66.518,169.800 69.452 M189.800 71.829 C 197.179 73.009,205.727 75.044,208.200 76.209 C 208.860 76.520,210.724 77.335,212.342 78.020 C 222.064 82.136,233.920 89.155,237.205 92.740 C 237.537 93.103,238.617 94.054,239.605 94.854 C 242.003 96.796,249.144 104.102,251.086 106.600 C 254.908 111.518,261.993 122.506,262.002 123.532 C 262.004 123.679,262.291 124.340,262.641 125.000 C 263.775 127.140,266.800 134.090,266.798 134.552 C 266.797 134.798,267.231 136.440,267.762 138.200 C 270.228 146.377,270.576 148.076,271.818 158.000 C 273.004 167.476,271.780 180.245,268.635 191.200 C 268.098 193.070,267.374 195.590,267.027 196.800 C 266.679 198.010,266.126 199.567,265.797 200.260 C 265.469 200.954,265.200 201.613,265.200 201.726 C 265.200 202.682,259.362 213.780,256.745 217.800 C 253.902 222.166,253.937 222.801,257.234 226.669 C 258.140 227.731,259.251 229.050,259.705 229.600 C 260.159 230.150,261.995 232.310,263.787 234.400 C 265.579 236.490,267.455 238.740,267.957 239.400 C 268.460 240.060,269.710 241.503,270.735 242.607 C 271.761 243.710,273.707 245.960,275.060 247.607 C 276.412 249.253,277.852 250.963,278.260 251.406 C 278.667 251.850,279.894 253.290,280.986 254.606 C 282.078 255.923,284.255 258.440,285.824 260.200 C 287.393 261.960,288.840 263.696,289.038 264.057 C 289.237 264.418,290.638 266.088,292.151 267.767 C 293.664 269.447,295.273 271.311,295.726 271.911 C 296.180 272.510,297.282 273.820,298.176 274.823 C 299.069 275.825,301.231 278.345,302.981 280.423 C 304.730 282.500,306.440 284.492,306.781 284.850 C 307.121 285.207,308.480 286.810,309.800 288.411 C 311.120 290.012,313.640 292.983,315.400 295.013 C 322.661 303.388,322.940 303.979,320.658 306.133 C 317.980 308.660,316.168 310.233,314.600 311.393 C 313.720 312.044,312.370 313.188,311.600 313.936 C 310.830 314.683,308.850 316.396,307.200 317.741 C 305.550 319.087,302.040 322.056,299.400 324.340 C 291.227 331.410,291.516 331.334,288.138 327.305 C 287.076 326.037,284.661 323.200,282.773 321.000 C 280.884 318.800,278.277 315.740,276.979 314.200 C 275.681 312.660,274.233 310.950,273.761 310.400 C 273.289 309.850,271.606 307.870,270.022 306.000 C 268.438 304.130,265.670 300.910,263.871 298.845 C 262.072 296.780,259.520 293.780,258.200 292.177 C 254.326 287.474,249.977 282.336,248.227 280.394 C 247.332 279.400,245.790 277.612,244.800 276.420 C 243.810 275.228,241.983 273.071,240.740 271.626 C 235.825 265.914,230.856 260.072,227.978 256.622 C 222.677 250.268,221.762 249.888,217.263 252.168 C 179.025 271.545,126.855 260.352,99.806 226.967 C 98.929 225.885,97.878 224.640,97.471 224.200 C 94.699 221.209,88.185 210.199,85.402 203.800 C 84.828 202.480,84.117 200.860,83.824 200.200 C 80.604 192.968,78.027 179.548,77.715 168.400 C 76.739 133.441,95.041 101.357,126.352 83.140 C 129.943 81.050,142.053 75.949,146.400 74.694 C 160.945 70.496,175.466 69.537,189.800 71.829 M163.199 100.987 C 136.959 106.258,118.226 122.332,110.037 146.600 C 104.719 162.362,106.956 184.021,115.322 197.761 C 116.407 199.542,117.669 201.630,118.126 202.400 C 122.861 210.368,134.947 220.692,145.200 225.527 C 151.350 228.427,152.152 228.695,161.200 230.882 C 166.896 232.258,182.743 232.253,188.400 230.873 C 190.490 230.363,193.370 229.666,194.800 229.323 C 211.532 225.313,233.554 205.578,237.787 190.800 C 237.945 190.250,238.597 188.450,239.237 186.800 C 243.607 175.527,243.594 156.665,239.206 145.400 C 238.521 143.640,237.584 141.210,237.125 140.000 C 233.510 130.482,222.749 117.786,213.000 111.539 C 208.375 108.575,199.455 104.008,198.266 103.995 C 198.010 103.992,196.360 103.530,194.600 102.967 C 184.983 99.893,172.547 99.109,163.199 100.987 M185.727 101.988 C 203.184 104.972,221.717 116.236,229.513 128.600 C 230.068 129.480,231.226 131.280,232.087 132.600 C 241.122 146.460,244.100 166.976,239.343 182.595 C 238.806 184.358,238.089 186.790,237.750 188.000 C 237.050 190.501,233.197 198.390,231.877 200.027 C 231.394 200.625,230.378 202.127,229.617 203.365 C 227.783 206.349,219.365 214.955,215.600 217.694 C 185.059 239.913,143.061 233.966,120.581 204.238 C 110.726 191.206,105.651 169.699,108.960 155.000 C 115.704 125.053,137.057 105.361,167.000 101.476 C 170.949 100.963,181.408 101.249,185.727 101.988 " stroke="none" fill="#b4acbc" fill-rule="evenodd"></path><path id="path3" d="M163.067 69.818 C 158.624 70.423,156.661 70.889,160.000 70.545 C 168.201 69.702,171.207 69.290,169.200 69.287 C 167.990 69.284,165.230 69.524,163.067 69.818 M178.691 69.489 C 179.401 69.577,180.661 69.579,181.491 69.492 C 182.321 69.405,181.740 69.333,180.200 69.331 C 178.660 69.329,177.981 69.400,178.691 69.489 M186.400 70.211 C 190.815 70.885,192.698 70.856,188.800 70.175 C 187.150 69.886,185.170 69.660,184.400 69.671 C 183.630 69.683,184.530 69.926,186.400 70.211 M152.481 71.679 C 148.264 72.859,149.169 72.966,153.628 71.814 C 155.702 71.278,156.950 70.844,156.400 70.851 C 155.850 70.857,154.086 71.229,152.481 71.679 M196.988 71.980 C 198.522 72.407,199.845 72.688,199.929 72.605 C 200.115 72.418,197.452 71.685,195.578 71.407 C 194.820 71.295,195.455 71.552,196.988 71.980 M145.000 73.786 C 143.455 74.493,144.174 74.503,146.000 73.800 C 146.770 73.503,147.130 73.255,146.800 73.248 C 146.470 73.242,145.660 73.483,145.000 73.786 M205.000 74.214 C 205.660 74.517,206.470 74.758,206.800 74.752 C 207.130 74.745,206.770 74.497,206.000 74.200 C 204.174 73.497,203.455 73.507,205.000 74.214 M139.000 75.838 C 137.900 76.372,137.450 76.694,138.000 76.554 C 139.142 76.262,142.007 74.827,141.400 74.851 C 141.180 74.860,140.100 75.304,139.000 75.838 M208.626 75.365 C 210.644 76.244,211.926 76.459,210.200 75.629 C 209.320 75.206,208.330 74.853,208.000 74.845 C 207.670 74.838,207.952 75.072,208.626 75.365 M217.164 79.020 C 220.115 80.441,222.592 81.542,222.668 81.465 C 222.837 81.296,212.604 76.393,212.133 76.418 C 211.950 76.428,214.214 77.599,217.164 79.020 M134.038 77.828 C 132.849 78.368,131.956 78.889,132.053 78.986 C 132.150 79.083,133.303 78.640,134.615 78.001 C 137.510 76.591,137.060 76.456,134.038 77.828 M129.200 80.200 C 128.210 80.730,127.580 81.164,127.800 81.164 C 128.020 81.164,129.010 80.730,130.000 80.200 C 130.990 79.670,131.620 79.236,131.400 79.236 C 131.180 79.236,130.190 79.670,129.200 80.200 M123.657 83.177 C 122.259 84.028,120.909 84.940,120.657 85.202 C 120.406 85.464,121.595 84.837,123.300 83.809 C 125.005 82.781,126.400 81.864,126.400 81.770 C 126.400 81.509,126.369 81.525,123.657 83.177 M223.200 81.738 C 223.200 81.850,224.325 82.619,225.700 83.447 C 238.334 91.050,248.687 100.908,257.367 113.600 C 259.113 116.153,259.514 116.602,258.796 115.200 C 254.225 106.281,239.141 91.293,227.659 84.262 C 226.636 83.636,225.215 82.766,224.500 82.329 C 223.785 81.892,223.200 81.626,223.200 81.738 M116.991 87.629 C 115.456 88.744,114.020 89.855,113.800 90.098 C 113.318 90.628,118.750 86.914,119.586 86.142 C 120.772 85.044,119.709 85.654,116.991 87.629 M108.704 94.300 C 103.958 98.616,98.808 104.043,97.069 106.562 L 95.938 108.200 97.069 106.812 C 99.532 103.789,106.387 96.740,109.700 93.823 C 112.787 91.104,113.486 90.400,113.097 90.400 C 113.040 90.400,111.063 92.155,108.704 94.300 M168.905 101.487 C 169.514 101.579,170.414 101.577,170.905 101.482 C 171.397 101.387,170.900 101.311,169.800 101.314 C 168.700 101.317,168.297 101.395,168.905 101.487 M178.900 101.487 C 179.505 101.578,180.495 101.578,181.100 101.487 C 181.705 101.395,181.210 101.320,180.000 101.320 C 178.790 101.320,178.295 101.395,178.900 101.487 M165.505 101.883 C 166.002 101.979,166.722 101.975,167.105 101.875 C 167.487 101.775,167.080 101.696,166.200 101.701 C 165.320 101.705,165.007 101.787,165.505 101.883 M182.900 101.876 C 183.285 101.976,183.915 101.976,184.300 101.876 C 184.685 101.775,184.370 101.693,183.600 101.693 C 182.830 101.693,182.515 101.775,182.900 101.876 M162.200 102.206 C 161.980 102.285,160.751 102.556,159.468 102.810 C 158.186 103.063,157.210 103.344,157.301 103.434 C 157.391 103.524,159.070 103.257,161.033 102.839 C 162.995 102.422,164.150 102.076,163.600 102.072 C 163.050 102.067,162.420 102.128,162.200 102.206 M186.200 102.400 C 186.860 102.568,187.850 102.705,188.400 102.705 C 189.292 102.705,189.270 102.672,188.200 102.400 C 187.540 102.232,186.550 102.095,186.000 102.095 C 185.108 102.095,185.130 102.128,186.200 102.400 M153.400 104.400 C 152.896 104.617,152.822 104.744,153.200 104.744 C 153.530 104.744,154.160 104.589,154.600 104.400 C 155.104 104.183,155.178 104.056,154.800 104.056 C 154.470 104.056,153.840 104.211,153.400 104.400 M198.744 105.609 C 199.703 106.044,200.603 106.392,200.744 106.383 C 201.249 106.350,198.187 104.833,197.600 104.826 C 197.270 104.821,197.785 105.174,198.744 105.609 M149.600 105.800 C 149.050 106.114,148.780 106.372,149.000 106.372 C 149.220 106.372,149.850 106.114,150.400 105.800 C 150.950 105.486,151.220 105.228,151.000 105.228 C 150.780 105.228,150.150 105.486,149.600 105.800 M146.200 107.390 C 144.110 108.677,144.614 108.689,146.859 107.405 C 147.817 106.857,148.420 106.408,148.200 106.407 C 147.980 106.405,147.080 106.848,146.200 107.390 M202.800 107.400 C 203.790 107.930,204.780 108.364,205.000 108.364 C 205.220 108.364,204.590 107.930,203.600 107.400 C 202.610 106.870,201.620 106.436,201.400 106.436 C 201.180 106.436,201.810 106.870,202.800 107.400 M93.352 111.565 C 92.093 113.306,90.454 115.871,89.711 117.265 C 88.116 120.256,88.507 119.772,91.217 115.400 C 92.308 113.640,93.848 111.345,94.639 110.300 C 95.430 109.255,95.979 108.400,95.859 108.400 C 95.739 108.400,94.610 109.824,93.352 111.565 M141.700 109.642 C 140.545 110.315,139.600 110.954,139.600 111.062 C 139.600 111.223,143.790 109.001,144.367 108.535 C 145.093 107.948,143.400 108.651,141.700 109.642 M205.800 108.696 C 206.020 108.925,207.280 109.701,208.600 110.421 C 209.920 111.141,210.820 111.548,210.600 111.325 C 210.380 111.102,209.120 110.326,207.800 109.600 C 206.480 108.874,205.580 108.467,205.800 108.696 M137.061 112.432 C 132.464 115.319,123.053 124.288,120.170 128.530 C 118.784 130.570,119.320 130.381,120.823 128.300 C 124.346 123.425,132.595 115.596,137.182 112.773 C 138.292 112.090,139.200 111.457,139.200 111.366 C 139.200 111.102,139.104 111.150,137.061 112.432 M211.200 111.671 C 211.310 111.798,213.227 113.271,215.459 114.946 C 222.720 120.392,229.420 128.225,234.155 136.800 C 234.945 138.230,235.593 139.242,235.595 139.049 C 235.601 138.608,232.927 133.883,230.587 130.200 C 228.290 126.584,220.843 118.697,216.665 115.455 C 213.755 113.197,210.664 111.057,211.200 111.671 M260.224 118.300 C 261.593 120.664,262.400 121.857,262.400 121.518 C 262.400 121.141,259.542 116.400,259.315 116.400 C 259.210 116.400,259.619 117.255,260.224 118.300 M86.678 122.605 C 86.312 123.372,86.095 124.000,86.196 124.000 C 86.470 124.000,87.684 121.551,87.501 121.368 C 87.414 121.281,87.044 121.838,86.678 122.605 M262.405 122.088 C 262.398 122.481,264.810 127.200,265.017 127.200 C 265.108 127.200,264.964 126.705,264.696 126.100 C 264.002 124.533,262.411 121.746,262.405 122.088 M84.480 127.020 C 83.776 128.448,83.200 129.832,83.200 130.096 C 83.200 130.361,83.835 129.252,84.611 127.633 C 85.387 126.014,85.963 124.630,85.891 124.557 C 85.818 124.485,85.183 125.593,84.480 127.020 M265.217 127.656 C 265.208 127.797,265.556 128.697,265.991 129.656 C 266.426 130.615,266.779 131.130,266.774 130.800 C 266.767 130.213,265.250 127.151,265.217 127.656 M81.825 133.404 C 81.451 134.192,81.233 135.053,81.341 135.318 C 81.466 135.627,81.549 135.584,81.571 135.200 C 81.590 134.870,81.877 134.078,82.210 133.440 C 82.542 132.803,82.745 132.211,82.660 132.126 C 82.574 132.041,82.199 132.616,81.825 133.404 M267.429 133.600 C 267.576 134.150,267.864 134.870,268.067 135.200 C 268.325 135.617,268.357 135.495,268.171 134.800 C 268.024 134.250,267.736 133.530,267.533 133.200 C 267.275 132.783,267.243 132.905,267.429 133.600 M114.382 138.436 C 113.268 140.655,112.412 142.594,112.479 142.745 C 112.545 142.896,113.539 141.080,114.687 138.709 C 115.834 136.339,116.691 134.400,116.590 134.400 C 116.490 134.400,115.496 136.216,114.382 138.436 M268.443 136.200 C 268.425 136.420,268.937 138.310,269.580 140.400 C 270.223 142.490,270.758 143.930,270.769 143.600 C 270.791 142.910,268.491 135.594,268.443 136.200 M235.634 139.800 C 235.634 140.020,235.978 140.830,236.400 141.600 C 236.822 142.370,237.166 142.820,237.166 142.600 C 237.166 142.380,236.822 141.570,236.400 140.800 C 235.978 140.030,235.634 139.580,235.634 139.800 M79.400 141.200 C 79.248 141.891,79.207 142.541,79.309 142.642 C 79.411 142.744,79.609 142.253,79.750 141.550 C 80.083 139.883,79.760 139.560,79.400 141.200 M78.600 144.400 C 78.448 145.091,78.407 145.741,78.509 145.842 C 78.611 145.944,78.809 145.453,78.950 144.750 C 79.283 143.083,78.960 142.760,78.600 144.400 M111.445 145.450 C 111.090 146.491,110.813 147.535,110.829 147.771 C 110.845 148.007,111.205 147.224,111.628 146.032 C 112.051 144.840,112.328 143.795,112.244 143.710 C 112.159 143.626,111.800 144.408,111.445 145.450 M270.887 145.000 C 270.891 145.440,271.032 146.340,271.200 147.000 C 271.474 148.078,271.506 148.098,271.513 147.200 C 271.517 146.650,271.376 145.750,271.200 145.200 C 270.949 144.416,270.881 144.373,270.887 145.000 M237.620 145.074 C 237.609 145.335,237.806 146.055,238.057 146.674 C 238.308 147.293,238.850 148.880,239.260 150.200 C 239.773 151.848,239.937 152.130,239.785 151.101 C 239.554 149.537,237.654 144.247,237.620 145.074 M77.272 151.494 C 77.013 153.067,76.818 154.769,76.841 155.277 C 76.863 155.785,77.136 154.679,77.448 152.820 C 77.759 150.962,77.953 149.259,77.879 149.037 C 77.805 148.816,77.532 149.921,77.272 151.494 M109.606 152.268 C 109.350 153.551,108.976 155.230,108.773 156.000 C 108.570 156.770,108.417 157.940,108.433 158.600 C 108.449 159.260,108.894 157.650,109.421 155.023 C 109.948 152.396,110.310 150.176,110.225 150.091 C 110.140 150.006,109.861 150.986,109.606 152.268 M240.262 154.200 C 240.392 155.080,240.740 157.330,241.036 159.200 L 241.574 162.600 241.369 159.800 C 241.257 158.260,240.909 156.010,240.596 154.800 C 240.198 153.264,240.097 153.083,240.262 154.200 M272.914 157.000 C 272.917 158.100,272.995 158.503,273.087 157.895 C 273.179 157.286,273.177 156.386,273.082 155.895 C 272.987 155.403,272.911 155.900,272.914 157.000 M76.524 158.600 C 76.526 159.920,76.601 160.412,76.690 159.693 C 76.779 158.974,76.777 157.894,76.686 157.293 C 76.595 156.692,76.522 157.280,76.524 158.600 M273.359 166.000 C 273.359 169.190,273.421 170.495,273.497 168.900 C 273.573 167.305,273.573 164.695,273.497 163.100 C 273.421 161.505,273.359 162.810,273.359 166.000 M108.153 166.200 C 108.153 168.840,108.218 169.868,108.297 168.484 C 108.375 167.101,108.374 164.941,108.295 163.684 C 108.216 162.428,108.152 163.560,108.153 166.200 M241.301 171.400 C 241.305 172.280,241.387 172.593,241.483 172.095 C 241.579 171.598,241.575 170.878,241.475 170.495 C 241.375 170.113,241.296 170.520,241.301 171.400 M76.528 174.000 C 76.528 175.430,76.601 176.015,76.689 175.300 C 76.778 174.585,76.778 173.415,76.689 172.700 C 76.601 171.985,76.528 172.570,76.528 174.000 M108.477 173.600 C 108.477 174.370,108.708 175.900,108.991 177.000 C 109.666 179.627,109.675 178.530,109.007 175.000 C 108.668 173.209,108.477 172.704,108.477 173.600 M240.893 174.400 C 240.893 175.170,240.975 175.485,241.076 175.100 C 241.176 174.715,241.176 174.085,241.076 173.700 C 240.975 173.315,240.893 173.630,240.893 174.400 M272.914 175.000 C 272.917 176.100,272.995 176.503,273.087 175.895 C 273.179 175.286,273.177 174.386,273.082 173.895 C 272.987 173.403,272.911 173.900,272.914 175.000 M76.893 177.800 C 76.894 178.460,77.032 179.540,77.200 180.200 C 77.623 181.863,77.642 180.226,77.223 178.200 C 76.945 176.855,76.892 176.791,76.893 177.800 M272.493 178.400 C 272.493 179.170,272.575 179.485,272.676 179.100 C 272.776 178.715,272.776 178.085,272.676 177.700 C 272.575 177.315,272.493 177.630,272.493 178.400 M239.822 179.422 C 239.672 180.225,239.628 180.962,239.726 181.060 C 239.824 181.157,240.027 180.581,240.178 179.778 C 240.328 178.975,240.372 178.238,240.274 178.140 C 240.176 178.043,239.973 178.619,239.822 179.422 M271.818 181.818 C 271.665 182.839,271.622 183.755,271.722 183.855 C 271.822 183.955,272.029 183.202,272.182 182.182 C 272.335 181.161,272.378 180.245,272.278 180.145 C 272.178 180.045,271.971 180.798,271.818 181.818 M77.847 183.467 C 78.067 185.548,79.122 189.917,79.135 188.800 C 79.139 188.470,78.802 186.670,78.386 184.800 C 77.837 182.333,77.689 181.967,77.847 183.467 M110.456 183.200 C 110.456 183.530,110.611 184.160,110.800 184.600 C 111.017 185.104,111.144 185.178,111.144 184.800 C 111.144 184.470,110.989 183.840,110.800 183.400 C 110.583 182.896,110.456 182.822,110.456 183.200 M238.444 184.444 C 238.198 185.151,238.066 185.800,238.152 185.885 C 238.238 185.971,238.509 185.462,238.756 184.756 C 239.002 184.049,239.134 183.400,239.048 183.315 C 238.962 183.229,238.691 183.738,238.444 184.444 M271.040 186.040 C 270.893 186.957,270.852 187.785,270.947 187.880 C 271.042 187.976,271.246 187.310,271.400 186.400 C 271.554 185.490,271.596 184.662,271.493 184.560 C 271.390 184.457,271.187 185.123,271.040 186.040 M111.216 185.854 C 111.207 186.104,111.463 186.914,111.784 187.654 C 112.106 188.394,112.376 188.796,112.384 188.546 C 112.393 188.296,112.137 187.486,111.816 186.746 C 111.494 186.006,111.224 185.604,111.216 185.854 M236.518 190.318 C 236.033 191.556,235.694 192.627,235.764 192.697 C 235.968 192.902,237.660 188.776,237.524 188.404 C 237.456 188.218,237.003 189.079,236.518 190.318 M269.850 190.850 C 269.475 192.198,269.240 193.374,269.328 193.462 C 269.416 193.550,269.797 192.521,270.175 191.175 C 270.553 189.829,270.787 188.654,270.697 188.563 C 270.606 188.473,270.225 189.502,269.850 190.850 M79.268 190.200 C 79.262 190.640,79.411 191.360,79.600 191.800 C 80.038 192.819,80.038 191.768,79.600 190.400 C 79.343 189.596,79.277 189.557,79.268 190.200 M112.806 190.566 C 112.799 190.982,116.960 198.862,117.995 200.395 C 118.369 200.948,119.198 202.195,119.837 203.168 C 122.817 207.697,130.919 215.573,136.700 219.558 C 139.341 221.379,137.888 220.048,134.352 217.408 C 126.153 211.285,120.338 204.355,115.045 194.400 C 113.817 192.090,112.809 190.365,112.806 190.566 M233.818 196.111 C 232.972 197.700,231.992 199.357,231.640 199.793 C 231.044 200.531,231.047 200.550,231.685 200.057 C 232.378 199.520,235.739 193.605,235.491 193.357 C 235.417 193.283,234.664 194.523,233.818 196.111 M268.286 196.086 C 267.921 197.225,267.690 198.223,267.771 198.304 C 267.852 198.385,268.225 197.529,268.600 196.400 C 268.975 195.271,269.206 194.273,269.115 194.181 C 269.023 194.090,268.650 194.947,268.286 196.086 M229.699 202.700 C 227.793 205.795,218.143 216.000,217.122 216.000 C 216.945 216.000,216.800 216.194,216.800 216.431 C 216.800 217.804,228.475 205.704,230.312 202.427 C 231.571 200.181,231.128 200.378,229.699 202.700 M264.928 204.838 C 264.009 206.797,263.342 208.400,263.447 208.400 C 263.719 208.400,266.942 201.608,266.755 201.427 C 266.670 201.344,265.848 202.879,264.928 204.838 M84.400 204.945 C 84.400 205.379,86.787 210.000,87.012 210.000 C 87.122 210.000,86.648 208.875,85.958 207.500 C 84.652 204.894,84.400 204.481,84.400 204.945 M261.281 212.032 C 260.337 213.775,259.650 215.200,259.754 215.200 C 260.023 215.200,263.314 209.181,263.141 209.007 C 263.062 208.929,262.225 210.290,261.281 212.032 M87.204 210.512 C 87.198 211.002,90.386 216.532,91.060 217.200 C 91.393 217.530,91.130 216.900,90.476 215.800 C 89.821 214.700,88.818 212.990,88.247 212.000 C 87.675 211.010,87.206 210.341,87.204 210.512 M214.922 217.837 L 213.800 218.873 215.100 218.009 C 216.291 217.218,216.679 216.800,216.222 216.800 C 216.125 216.800,215.540 217.267,214.922 217.837 M257.054 219.122 C 256.474 219.958,256.007 220.903,256.016 221.222 C 256.024 221.540,256.289 221.260,256.605 220.600 C 256.920 219.940,257.475 218.995,257.838 218.500 C 258.201 218.005,258.410 217.600,258.303 217.600 C 258.196 217.600,257.634 218.285,257.054 219.122 M92.243 219.130 C 92.659 219.862,93.503 221.032,94.117 221.730 C 94.924 222.648,94.821 222.390,93.746 220.800 C 91.938 218.126,91.215 217.323,92.243 219.130 M209.295 221.471 C 207.928 222.280,206.870 223.003,206.945 223.078 C 207.071 223.205,211.447 220.686,211.918 220.215 C 212.423 219.711,211.626 220.092,209.295 221.471 M139.200 220.901 C 139.200 221.155,142.296 223.200,142.680 223.200 C 142.844 223.200,142.623 222.958,142.189 222.661 C 140.281 221.359,139.200 220.722,139.200 220.901 M256.039 223.163 C 256.596 224.339,260.855 229.634,261.867 230.409 C 262.270 230.717,262.124 230.436,261.541 229.785 C 260.397 228.504,256.918 224.131,256.092 222.936 C 255.660 222.311,255.652 222.345,256.039 223.163 M96.475 225.065 C 98.186 227.473,105.472 235.328,107.462 236.910 C 108.308 237.583,109.817 238.868,110.815 239.766 C 111.813 240.665,111.633 240.434,110.415 239.253 C 102.555 231.634,99.689 228.665,97.718 226.100 C 95.221 222.852,94.441 222.202,96.475 225.065 M143.233 223.349 C 143.645 223.717,146.000 224.800,146.000 224.621 C 146.000 224.390,143.782 223.200,143.353 223.200 C 143.196 223.200,143.142 223.267,143.233 223.349 M204.800 224.000 C 204.030 224.422,203.544 224.774,203.720 224.783 C 204.144 224.805,206.400 223.632,206.400 223.390 C 206.400 223.128,206.377 223.137,204.800 224.000 M147.200 225.400 C 147.750 225.714,148.380 225.972,148.600 225.972 C 148.820 225.972,148.550 225.714,148.000 225.400 C 147.450 225.086,146.820 224.828,146.600 224.828 C 146.380 224.828,146.650 225.086,147.200 225.400 M201.642 225.234 C 201.115 225.445,200.784 225.717,200.907 225.840 C 201.029 225.962,201.640 225.786,202.265 225.447 C 203.521 224.766,203.139 224.635,201.642 225.234 M149.207 226.124 C 149.507 226.447,157.212 229.204,157.748 229.179 C 157.996 229.168,156.580 228.563,154.600 227.835 C 150.330 226.266,148.926 225.821,149.207 226.124 M194.000 228.200 C 192.570 228.716,191.590 229.152,191.822 229.169 C 192.358 229.208,197.200 227.583,197.200 227.363 C 197.200 227.094,196.720 227.219,194.000 228.200 M164.400 230.380 C 165.399 230.720,167.882 230.932,167.567 230.651 C 167.475 230.569,166.500 230.399,165.400 230.272 C 164.051 230.116,163.726 230.151,164.400 230.380 M183.200 230.400 C 181.843 230.686,181.837 230.695,183.000 230.707 C 183.660 230.715,184.650 230.576,185.200 230.400 C 186.512 229.980,185.196 229.980,183.200 230.400 M171.500 231.098 C 173.315 231.172,176.285 231.172,178.100 231.098 C 179.915 231.023,178.430 230.963,174.800 230.963 C 171.170 230.963,169.685 231.023,171.500 231.098 M266.006 235.400 C 270.734 241.046,272.490 243.120,275.639 246.770 C 277.047 248.403,279.135 250.861,280.278 252.232 C 281.421 253.604,282.573 254.860,282.837 255.023 C 283.101 255.186,281.806 253.536,279.959 251.355 C 278.111 249.174,274.170 244.519,271.200 241.011 C 268.230 237.503,265.017 233.816,264.061 232.816 C 263.104 231.817,263.980 232.980,266.006 235.400 M114.200 242.588 C 115.408 243.646,116.800 244.553,116.800 244.282 C 116.800 244.201,115.945 243.551,114.900 242.836 C 113.462 241.852,113.292 241.792,114.200 242.588 M117.393 244.789 C 117.937 245.668,127.909 251.824,128.246 251.488 C 128.321 251.412,126.992 250.568,125.292 249.612 C 123.591 248.656,121.063 247.090,119.673 246.132 C 118.283 245.173,117.257 244.569,117.393 244.789 M219.400 252.378 C 218.520 252.795,217.913 253.150,218.051 253.168 C 218.440 253.218,221.200 252.014,221.200 251.795 C 221.200 251.527,221.199 251.527,219.400 252.378 M129.633 252.151 C 130.042 252.521,133.200 253.995,133.200 253.816 C 133.200 253.589,130.181 252.000,129.749 252.000 C 129.594 252.000,129.542 252.068,129.633 252.151 M222.869 253.100 C 223.601 253.705,224.556 254.650,224.991 255.200 C 225.427 255.750,226.572 257.010,227.536 258.000 C 229.026 259.530,228.968 259.415,227.145 257.234 C 224.214 253.726,222.511 252.000,221.983 252.000 C 221.738 252.000,222.137 252.495,222.869 253.100 M136.400 255.366 C 136.950 255.660,137.850 256.012,138.400 256.149 C 138.950 256.286,138.680 256.052,137.800 255.629 C 135.990 254.758,134.868 254.548,136.400 255.366 M209.200 256.635 C 206.890 257.593,205.215 258.383,205.478 258.389 C 205.996 258.401,212.354 255.899,213.498 255.233 C 214.919 254.405,213.292 254.936,209.200 256.635 M284.041 256.644 C 285.019 257.913,287.756 261.128,293.024 267.200 C 296.296 270.971,309.435 286.408,313.800 291.609 C 315.340 293.444,316.939 295.296,317.352 295.725 C 324.393 303.024,324.515 304.042,318.928 308.892 C 316.579 310.931,313.737 313.500,312.613 314.600 C 311.046 316.134,310.993 316.218,312.385 314.959 C 313.383 314.056,315.460 312.318,317.000 311.096 C 325.675 304.212,325.694 304.547,315.980 293.600 C 314.516 291.950,312.199 289.250,310.830 287.600 C 309.462 285.950,307.953 284.150,307.477 283.600 C 307.002 283.050,304.310 279.900,301.496 276.600 C 298.682 273.300,295.439 269.538,294.290 268.240 C 293.140 266.943,291.300 264.767,290.200 263.406 C 288.002 260.686,282.500 254.646,284.041 256.644 M140.800 257.200 C 141.570 257.622,142.470 257.970,142.800 257.974 C 143.130 257.979,142.615 257.626,141.656 257.191 C 139.450 256.190,138.965 256.195,140.800 257.200 M145.800 258.800 C 146.240 258.989,146.870 259.144,147.200 259.144 C 147.578 259.144,147.504 259.017,147.000 258.800 C 146.560 258.611,145.930 258.456,145.600 258.456 C 145.222 258.456,145.296 258.583,145.800 258.800 M150.600 260.000 C 151.040 260.189,151.670 260.344,152.000 260.344 C 152.378 260.344,152.304 260.217,151.800 260.000 C 151.360 259.811,150.730 259.656,150.400 259.656 C 150.022 259.656,150.096 259.783,150.600 260.000 M196.400 260.400 C 195.596 260.657,195.557 260.723,196.200 260.732 C 196.640 260.738,197.360 260.589,197.800 260.400 C 198.819 259.962,197.768 259.962,196.400 260.400 M230.799 261.999 C 231.719 263.098,232.681 264.126,232.936 264.283 C 233.191 264.439,232.523 263.540,231.451 262.284 C 230.380 261.028,229.418 260.000,229.314 260.000 C 229.210 260.000,229.879 260.899,230.799 261.999 M160.400 261.980 C 161.399 262.320,163.882 262.532,163.567 262.251 C 163.475 262.169,162.500 261.999,161.400 261.872 C 160.051 261.716,159.726 261.751,160.400 261.980 M187.200 262.000 C 185.843 262.286,185.837 262.295,187.000 262.307 C 187.660 262.315,188.650 262.176,189.200 262.000 C 190.512 261.580,189.196 261.580,187.200 262.000 M166.500 262.687 C 167.105 262.778,168.095 262.778,168.700 262.687 C 169.305 262.595,168.810 262.520,167.600 262.520 C 166.390 262.520,165.895 262.595,166.500 262.687 M181.107 262.690 C 181.826 262.779,182.906 262.777,183.507 262.686 C 184.108 262.595,183.520 262.522,182.200 262.524 C 180.880 262.526,180.388 262.601,181.107 262.690 M235.219 267.100 C 236.406 268.475,237.440 269.600,237.516 269.600 C 237.844 269.600,235.945 267.284,234.565 266.000 C 233.510 265.019,233.705 265.348,235.219 267.100 M239.150 271.841 C 240.044 272.963,241.081 274.133,241.454 274.441 C 241.828 274.748,242.655 275.720,243.292 276.600 C 244.452 278.203,250.223 284.905,252.743 287.576 C 253.482 288.359,252.672 287.322,250.943 285.270 C 249.214 283.219,246.508 279.979,244.928 278.070 C 241.341 273.736,236.526 268.545,239.150 271.841 M259.264 295.405 C 262.199 298.868,266.054 303.433,267.832 305.551 C 269.610 307.668,271.924 310.300,272.975 311.400 C 274.807 313.319,274.798 313.298,272.742 310.874 C 271.564 309.484,269.340 306.850,267.800 305.021 C 258.690 294.198,254.762 289.624,254.370 289.381 C 254.127 289.231,256.329 291.941,259.264 295.405 M276.350 315.541 C 277.244 316.608,278.292 317.733,278.680 318.041 C 279.068 318.348,278.416 317.475,277.232 316.100 C 276.049 314.725,275.000 313.600,274.903 313.600 C 274.805 313.600,275.457 314.473,276.350 315.541 M281.275 321.304 C 287.880 329.088,290.127 331.540,290.824 331.722 C 291.252 331.834,291.500 331.762,291.377 331.563 C 291.254 331.363,290.915 331.200,290.625 331.200 C 290.334 331.200,289.401 330.345,288.552 329.300 C 286.225 326.438,279.507 318.800,279.317 318.800 C 279.225 318.800,280.106 319.927,281.275 321.304 M305.132 320.710 C 303.960 321.761,301.830 323.601,300.400 324.800 C 298.970 325.999,296.820 327.858,295.622 328.931 C 294.424 330.005,293.074 331.033,292.622 331.216 C 291.974 331.479,291.943 331.555,292.477 331.575 C 292.850 331.589,294.200 330.645,295.477 329.478 C 296.755 328.310,299.330 326.071,301.200 324.502 C 306.130 320.363,307.835 318.832,307.532 318.815 C 307.385 318.807,306.305 319.660,305.132 320.710 " stroke="none" fill="#aba4b4" fill-rule="evenodd"></path><path id="path4" d="M162.800 68.666 C 162.250 68.753,160.630 69.077,159.200 69.387 C 157.770 69.697,155.827 70.055,154.882 70.183 C 151.623 70.624,137.874 74.823,137.020 75.637 C 136.811 75.837,136.353 76.000,136.003 76.000 C 135.379 76.000,125.462 80.885,124.552 81.640 C 124.298 81.851,123.304 82.423,122.342 82.911 C 116.035 86.116,100.043 100.322,95.673 106.600 C 94.755 107.920,93.188 110.129,92.193 111.509 C 89.556 115.162,84.779 123.750,83.459 127.210 C 82.831 128.854,82.138 130.541,81.919 130.958 C 79.776 135.036,76.770 146.924,75.800 155.163 C 74.054 169.996,76.675 190.476,81.590 200.400 C 81.971 201.170,82.401 202.288,82.545 202.885 C 83.514 206.891,89.659 217.594,95.129 224.800 C 104.753 237.480,116.285 246.793,131.537 254.206 C 134.472 255.633,137.016 256.800,137.189 256.800 C 137.362 256.800,138.470 257.242,139.652 257.783 C 140.833 258.324,142.970 259.046,144.400 259.387 C 145.830 259.729,147.811 260.279,148.802 260.609 C 149.794 260.940,151.594 261.387,152.802 261.603 C 154.011 261.819,155.900 262.183,157.000 262.412 C 169.145 264.944,188.601 264.196,199.908 260.762 C 201.288 260.343,202.672 260.000,202.984 260.000 C 203.893 260.000,210.125 257.928,210.989 257.338 C 211.423 257.042,211.997 256.800,212.265 256.800 C 212.533 256.800,214.254 256.093,216.089 255.229 C 221.938 252.477,221.191 252.182,227.600 259.765 C 231.851 264.795,236.488 270.200,238.955 273.000 C 240.118 274.320,242.482 277.110,244.209 279.200 C 245.937 281.290,247.459 283.090,247.592 283.200 C 247.725 283.310,249.795 285.740,252.192 288.600 C 254.590 291.460,257.480 294.880,258.615 296.200 C 259.750 297.520,261.021 299.037,261.439 299.570 C 261.858 300.104,263.280 301.743,264.600 303.213 C 265.920 304.682,267.270 306.250,267.600 306.697 C 267.930 307.143,269.640 309.177,271.400 311.216 C 273.160 313.256,275.320 315.762,276.200 316.787 C 277.080 317.812,278.728 319.719,279.863 321.025 C 280.997 322.331,282.617 324.233,283.463 325.250 C 290.166 333.318,289.868 333.061,292.197 332.805 C 293.099 332.705,294.918 331.495,296.403 330.006 C 296.954 329.453,298.484 328.105,299.803 327.012 C 301.121 325.918,303.024 324.298,304.030 323.412 C 305.037 322.525,306.630 321.170,307.570 320.400 C 308.510 319.630,309.937 318.407,310.740 317.682 C 311.543 316.957,314.090 314.799,316.400 312.887 C 326.357 304.644,326.439 304.432,321.759 298.957 C 320.087 297.001,318.377 295.078,317.959 294.684 C 317.542 294.291,317.199 293.841,317.198 293.684 C 317.197 293.528,316.612 292.758,315.898 291.973 C 313.674 289.528,311.457 286.961,310.000 285.145 C 309.230 284.185,307.872 282.590,306.982 281.600 C 306.092 280.610,304.573 278.810,303.606 277.600 C 302.640 276.390,301.550 275.130,301.185 274.800 C 300.820 274.470,299.293 272.670,297.792 270.800 C 296.291 268.930,294.386 266.680,293.560 265.800 C 291.838 263.966,283.361 254.074,279.800 249.744 C 278.480 248.138,275.600 244.738,273.400 242.188 C 257.340 223.568,256.278 222.090,257.767 220.431 C 259.527 218.472,266.838 204.646,267.434 202.152 C 267.585 201.518,267.952 200.550,268.249 200.000 C 268.902 198.791,269.868 196.110,270.626 193.400 C 271.165 191.472,271.509 190.076,273.038 183.600 C 273.895 179.970,274.346 157.684,273.657 152.992 C 272.552 145.467,269.767 134.664,268.400 132.600 C 268.254 132.380,267.721 131.030,267.216 129.600 C 266.251 126.873,264.687 123.684,262.015 119.000 C 261.137 117.460,260.072 115.570,259.649 114.800 C 255.487 107.228,242.741 93.450,234.939 88.092 C 234.533 87.813,232.693 86.513,230.850 85.203 C 229.008 83.894,227.118 82.706,226.650 82.564 C 226.183 82.422,225.530 82.079,225.200 81.802 C 223.366 80.262,214.041 75.918,208.600 74.069 C 201.206 71.557,195.770 70.205,187.400 68.795 C 185.440 68.465,164.768 68.357,162.800 68.666 M191.200 70.524 C 194.390 71.090,197.900 71.824,199.000 72.155 C 200.100 72.487,202.808 73.288,205.018 73.936 C 264.391 91.341,291.665 161.573,259.841 215.106 C 254.933 223.363,254.567 221.709,263.621 232.200 C 268.951 238.376,279.906 251.251,288.807 261.800 C 289.921 263.120,292.078 265.640,293.601 267.400 C 295.125 269.160,298.675 273.300,301.492 276.600 C 304.308 279.900,307.002 283.050,307.477 283.600 C 307.953 284.150,309.462 285.950,310.830 287.600 C 312.199 289.250,314.516 291.950,315.980 293.600 C 325.816 304.685,325.807 303.925,316.200 311.839 C 314.220 313.470,310.869 316.288,308.753 318.102 C 306.637 319.916,303.307 322.740,301.353 324.378 C 299.399 326.015,296.781 328.286,295.535 329.424 C 293.356 331.414,292.149 331.986,290.743 331.694 C 290.150 331.571,286.648 327.647,278.015 317.433 C 276.357 315.471,273.729 312.411,272.176 310.633 C 270.623 308.855,268.283 306.117,266.976 304.548 C 262.924 299.686,256.427 292.038,251.611 286.462 C 249.075 283.526,246.190 280.120,245.200 278.893 C 244.210 277.666,242.491 275.659,241.380 274.431 C 240.269 273.204,238.562 271.210,237.586 270.000 C 236.610 268.790,234.639 266.436,233.206 264.770 C 231.773 263.103,229.250 260.153,227.600 258.214 C 221.685 251.263,222.247 251.495,216.919 253.808 C 206.865 258.172,202.350 259.606,193.600 261.217 C 183.560 263.065,167.062 263.358,159.000 261.830 C 143.183 258.833,127.978 252.768,118.200 245.553 C 94.468 228.044,81.865 207.914,77.165 180.010 C 75.364 169.321,76.441 151.954,79.596 140.800 C 80.063 139.150,80.700 136.900,81.011 135.800 C 81.323 134.700,81.943 133.087,82.389 132.215 C 82.835 131.344,83.200 130.396,83.200 130.109 C 83.200 128.253,90.483 115.451,95.187 109.040 C 110.281 88.465,135.158 73.660,160.400 70.230 C 162.930 69.886,165.450 69.528,166.000 69.434 C 169.483 68.841,185.655 69.540,191.200 70.524 M167.600 101.784 C 153.145 103.687,141.646 108.546,131.659 116.972 C 92.773 149.780,104.363 209.854,152.933 227.235 C 167.455 232.432,187.082 231.839,200.652 225.794 C 206.792 223.058,211.192 220.632,214.243 218.300 C 215.319 217.477,216.729 216.398,217.377 215.902 C 236.233 201.449,245.577 174.069,239.423 151.294 C 236.867 141.833,235.100 137.780,230.490 130.800 C 217.214 110.699,191.167 98.682,167.600 101.784 M185.400 103.380 C 195.462 104.988,199.638 106.457,208.600 111.539 C 221.322 118.753,234.676 135.142,237.199 146.636 C 237.436 147.716,237.873 149.320,238.171 150.200 C 241.565 160.236,240.552 178.506,236.020 189.000 C 234.211 193.189,232.207 197.083,230.731 199.278 C 229.889 200.531,229.200 201.683,229.200 201.838 C 229.200 202.298,225.741 206.372,222.440 209.800 C 215.485 217.021,209.889 220.746,199.000 225.401 C 184.403 231.641,167.520 231.510,149.687 225.019 C 134.922 219.644,119.899 204.914,114.176 190.200 C 108.964 176.800,108.110 167.220,110.843 152.800 C 111.281 150.490,111.798 148.240,111.992 147.800 C 112.186 147.360,112.565 146.280,112.835 145.400 C 121.463 117.242,154.053 98.370,185.400 103.380 " stroke="none" fill="#9a93a5" fill-rule="evenodd"></path></g></svg>